<svg xmlns="http://www.w3.org/2000/svg" viewBox="0 0 3168 3168" shape-rendering="geometricPrecision" text-rendering="geometricPrecision" image-rendering="optimizeQuality" fill-rule="evenodd" clip-rule="evenodd"><path d="M1584 0c875 0 1584 709 1584 1584s-709 1584-1584 1584S0 2459 0 1584 709 0 1584 0zM879 1745c-20-18-31-43-32-69-1-25 7-51 25-72 0 0 0-1 1-1 18-20 43-31 69-32 25-1 52 7 72 26l334 303 801-839c19-20 44-30 70-31s51 8 71 28c20 19 30 44 31 70s-8 51-28 72l-869 910-2 2c-18 18-43 28-67 29-25 1-51-8-71-26l-406-368z"/></svg>